<?xml version="1.0" encoding="UTF-8"?>
<!DOCTYPE svg PUBLIC "-//W3C//DTD SVG 1.1//EN" "http://www.w3.org/Graphics/SVG/1.1/DTD/svg11.dtd">
<svg xmlns="http://www.w3.org/2000/svg" version="1.1" width="500px" height="500px" style="shape-rendering:geometricPrecision; text-rendering:geometricPrecision; image-rendering:optimizeQuality; fill-rule:evenodd; clip-rule:evenodd" xmlns:xlink="http://www.w3.org/1999/xlink">
<g><path style="opacity:0.004" fill="#fefffe" d="M 299.5,0.5 C 300.833,1.16667 300.833,1.16667 299.5,0.5 Z"/></g>
<g><path style="opacity:0.004" fill="#fefffe" d="M 175.5,9.5 C 176.833,10.1667 176.833,10.1667 175.5,9.5 Z"/></g>
<g><path style="opacity:0.004" fill="#fefffe" d="M 473.5,21.5 C 474.833,22.1667 474.833,22.1667 473.5,21.5 Z"/></g>
<g><path style="opacity:0.004" fill="#fefffe" d="M 274.5,31.5 C 275.833,32.1667 275.833,32.1667 274.5,31.5 Z"/></g>
<g><path style="opacity:0.004" fill="#fefffe" d="M 119.5,33.5 C 120.833,34.1667 120.833,34.1667 119.5,33.5 Z"/></g>
<g><path style="opacity:0.004" fill="#fefffe" d="M 304.5,35.5 C 305.833,36.1667 305.833,36.1667 304.5,35.5 Z"/></g>
<g><path style="opacity:0.004" fill="#fefffe" d="M 95.5,41.5 C 96.8333,42.1667 96.8333,42.1667 95.5,41.5 Z"/></g>
<g><path style="opacity:0.004" fill="#fefffe" d="M 75.5,43.5 C 76.8333,44.1667 76.8333,44.1667 75.5,43.5 Z"/></g>
<g><path style="opacity:0.813" fill="#272727" d="M 116.5,49.5 C 118.158,50.1814 119.825,51.0147 121.5,52C 120.552,52.4828 119.552,52.6495 118.5,52.5C 107.336,51.9406 96.3357,52.9406 85.5,55.5C 86.1098,54.609 86.4431,53.609 86.5,52.5C 96.0759,48.5742 106.076,47.5742 116.5,49.5 Z"/></g>
<g><path style="opacity:0.004" fill="#fefffe" d="M 164.5,50.5 C 165.833,51.1667 165.833,51.1667 164.5,50.5 Z"/></g>
<g><path style="opacity:0.815" fill="#313131" d="M 86.5,52.5 C 86.4431,53.609 86.1098,54.609 85.5,55.5C 54.3958,73.5571 45.8958,99.2237 60,132.5C 74.5993,154.04 94.7659,162.206 120.5,157C 141.062,149.611 154.062,135.445 159.5,114.5C 159.229,116.38 159.896,117.713 161.5,118.5C 152.176,149.007 131.51,163.507 99.5,162C 71.7845,157.285 55.2845,141.118 50,113.5C 47.4784,84.2241 59.645,63.8908 86.5,52.5 Z"/></g>
<g><path style="opacity:0.004" fill="#fefffe" d="M 59.5,57.5 C 60.8333,58.1667 60.8333,58.1667 59.5,57.5 Z"/></g>
<g><path style="opacity:0.004" fill="#fefffe" d="M 49.5,64.5 C 50.8333,65.1667 50.8333,65.1667 49.5,64.5 Z"/></g>
<g><path style="opacity:0.004" fill="#fefffe" d="M 410.5,64.5 C 411.833,65.1667 411.833,65.1667 410.5,64.5 Z"/></g>
<g><path style="opacity:0.004" fill="#fefffe" d="M 239.5,67.5 C 240.833,68.1667 240.833,68.1667 239.5,67.5 Z"/></g>
<g><path style="opacity:0.004" fill="#fefffe" d="M 282.5,69.5 C 283.833,70.1667 283.833,70.1667 282.5,69.5 Z"/></g>
<g><path style="opacity:0.833" fill="#363636" d="M 161.5,93.5 C 164.058,101.826 164.058,110.159 161.5,118.5C 159.896,117.713 159.229,116.38 159.5,114.5C 161.523,94.3998 153.189,80.8998 134.5,74C 111.232,71.9415 98.0658,82.4415 95,105.5C 93.9887,106.337 92.8221,106.67 91.5,106.5C 93.9462,80.88 107.946,68.7133 133.5,70C 146.974,72.9792 156.307,80.8126 161.5,93.5 Z"/></g>
<g><path style="opacity:0.865" fill="#333333" d="M 116.5,49.5 C 163.55,54.2748 197.383,77.9414 218,120.5C 227.43,142.046 234.596,164.379 239.5,187.5C 237.334,184.96 236.334,185.627 236.5,189.5C 230.238,162.192 220.738,135.858 208,110.5C 187.069,76.8211 157.236,57.4878 118.5,52.5C 119.552,52.6495 120.552,52.4828 121.5,52C 119.825,51.0147 118.158,50.1814 116.5,49.5 Z"/></g>
<g><path style="opacity:0.004" fill="#fefffe" d="M 161.5,92.5 C 162.833,93.1667 162.833,93.1667 161.5,92.5 Z"/></g>
<g><path style="opacity:0.004" fill="#fefffe" d="M 275.5,102.5 C 276.833,103.167 276.833,103.167 275.5,102.5 Z"/></g>
<g><path style="opacity:0.852" fill="#353535" d="M 302.5,186.5 C 301.708,184.255 300.375,183.922 298.5,185.5C 345.904,157.162 393.904,129.496 442.5,102.5C 443.429,103.689 443.762,105.022 443.5,106.5C 442.448,106.351 441.448,106.517 440.5,107C 394.668,133.949 348.668,160.449 302.5,186.5 Z"/></g>
<g><path style="opacity:0.004" fill="#fefffe" d="M 388.5,104.5 C 389.833,105.167 389.833,105.167 388.5,104.5 Z"/></g>
<g><path style="opacity:0.004" fill="#fefffe" d="M 417.5,109.5 C 418.833,110.167 418.833,110.167 417.5,109.5 Z"/></g>
<g><path style="opacity:0.004" fill="#fefffe" d="M 72.5,114.5 C 73.8333,115.167 73.8333,115.167 72.5,114.5 Z"/></g>
<g><path style="opacity:0.004" fill="#fefffe" d="M 202.5,122.5 C 203.833,123.167 203.833,123.167 202.5,122.5 Z"/></g>
<g><path style="opacity:0.004" fill="#fefffe" d="M 259.5,124.5 C 260.833,125.167 260.833,125.167 259.5,124.5 Z"/></g>
<g><path style="opacity:0.004" fill="#fefffe" d="M 206.5,127.5 C 207.833,128.167 207.833,128.167 206.5,127.5 Z"/></g>
<g><path style="opacity:0.004" fill="#fefffe" d="M 346.5,128.5 C 347.833,129.167 347.833,129.167 346.5,128.5 Z"/></g>
<g><path style="opacity:0.004" fill="#fefffe" d="M 279.5,132.5 C 280.833,133.167 280.833,133.167 279.5,132.5 Z"/></g>
<g><path style="opacity:0.004" fill="#fefffe" d="M 21.5,149.5 C 22.8333,150.167 22.8333,150.167 21.5,149.5 Z"/></g>
<g><path style="opacity:0.004" fill="#fefffe" d="M 50.5,156.5 C 51.8333,157.167 51.8333,157.167 50.5,156.5 Z"/></g>
<g><path style="opacity:0.004" fill="#fefffe" d="M 166.5,157.5 C 167.833,158.167 167.833,158.167 166.5,157.5 Z"/></g>
<g><path style="opacity:0.004" fill="#fefffe" d="M 45.5,159.5 C 46.8333,160.167 46.8333,160.167 45.5,159.5 Z"/></g>
<g><path style="opacity:0.004" fill="#fefffe" d="M 355.5,159.5 C 356.833,160.167 356.833,160.167 355.5,159.5 Z"/></g>
<g><path style="opacity:0.004" fill="#fefffe" d="M 453.5,162.5 C 454.833,163.167 454.833,163.167 453.5,162.5 Z"/></g>
<g><path style="opacity:0.004" fill="#fefffe" d="M 290.5,163.5 C 291.833,164.167 291.833,164.167 290.5,163.5 Z"/></g>
<g><path style="opacity:0.004" fill="#fefffe" d="M 299.5,166.5 C 300.833,167.167 300.833,167.167 299.5,166.5 Z"/></g>
<g><path style="opacity:0.004" fill="#fefffe" d="M 383.5,167.5 C 384.833,168.167 384.833,168.167 383.5,167.5 Z"/></g>
<g><path style="opacity:0.004" fill="#fefffe" d="M 199.5,169.5 C 200.833,170.167 200.833,170.167 199.5,169.5 Z"/></g>
<g><path style="opacity:0.004" fill="#fefffe" d="M 372.5,173.5 C 373.833,174.167 373.833,174.167 372.5,173.5 Z"/></g>
<g><path style="opacity:0.004" fill="#fefffe" d="M 35.5,174.5 C 36.8333,175.167 36.8333,175.167 35.5,174.5 Z"/></g>
<g><path style="opacity:0.004" fill="#fefffe" d="M 318.5,182.5 C 319.833,183.167 319.833,183.167 318.5,182.5 Z"/></g>
<g><path style="opacity:0.004" fill="#fefffe" d="M 361.5,183.5 C 362.833,184.167 362.833,184.167 361.5,183.5 Z"/></g>
<g><path style="opacity:0.844" fill="#383838" d="M 298.5,185.5 C 300.375,183.922 301.708,184.255 302.5,186.5C 294.762,191.546 286.762,196.379 278.5,201C 286.215,214.268 294.048,227.434 302,240.5C 303.741,243.309 304.908,246.309 305.5,249.5C 303.61,249.703 302.11,249.037 301,247.5C 284.293,217.945 267.293,188.612 250,159.5C 249.506,157.866 249.34,156.199 249.5,154.5C 250.822,154.33 251.989,154.663 253,155.5C 260.488,169.812 268.488,183.812 277,197.5C 284.172,193.335 291.339,189.335 298.5,185.5 Z"/></g>
<g><path style="opacity:0.004" fill="#fefffe" d="M 222.5,192.5 C 223.833,193.167 223.833,193.167 222.5,192.5 Z"/></g>
<g><path style="opacity:0.584" fill="#7b7b7b" d="M 188.5,194.5 C 187.503,194.47 186.836,194.97 186.5,196C 186.989,197.138 187.322,198.305 187.5,199.5C 185.72,198.01 185.054,196.01 185.5,193.5C 186.791,193.263 187.791,193.596 188.5,194.5 Z"/></g>
<g><path style="opacity:0.004" fill="#fefffe" d="M 236.5,201.5 C 237.833,202.167 237.833,202.167 236.5,201.5 Z"/></g>
<g><path style="opacity:0.004" fill="#fefffe" d="M 483.5,204.5 C 484.833,205.167 484.833,205.167 483.5,204.5 Z"/></g>
<g><path style="opacity:0.004" fill="#fefffe" d="M 126.5,205.5 C 127.833,206.167 127.833,206.167 126.5,205.5 Z"/></g>
<g><path style="opacity:0.004" fill="#fefffe" d="M 80.5,223.5 C 81.8333,224.167 81.8333,224.167 80.5,223.5 Z"/></g>
<g><path style="opacity:0.004" fill="#fefffe" d="M 17.5,224.5 C 18.8333,225.167 18.8333,225.167 17.5,224.5 Z"/></g>
<g><path style="opacity:0.004" fill="#fefffe" d="M 235.5,225.5 C 236.833,226.167 236.833,226.167 235.5,225.5 Z"/></g>
<g><path style="opacity:0.004" fill="#fefffe" d="M 84.5,227.5 C 85.8333,228.167 85.8333,228.167 84.5,227.5 Z"/></g>
<g><path style="opacity:0.833" fill="#343434" d="M 239.5,187.5 C 243.369,204.011 246.535,220.678 249,237.5C 252.557,270.509 256.224,303.509 260,336.5C 262.075,345.817 264.908,354.817 268.5,363.5C 268.427,365.027 269.094,366.027 270.5,366.5C 271.877,368.289 272.877,370.289 273.5,372.5C 272.5,372.833 271.833,373.5 271.5,374.5C 263.734,362.737 258.568,349.737 256,335.5C 252.505,306.886 249.671,278.219 247.5,249.5C 247.354,245.613 246.687,241.946 245.5,238.5C 242.78,222.127 239.78,205.794 236.5,189.5C 236.334,185.627 237.334,184.96 239.5,187.5 Z"/></g>
<g><path style="opacity:0.004" fill="#fefffe" d="M 239.5,231.5 C 240.833,232.167 240.833,232.167 239.5,231.5 Z"/></g>
<g><path style="opacity:0.851" fill="#383838" d="M 188.5,194.5 C 205.998,224.829 223.498,255.162 241,285.5C 241.49,286.793 241.657,288.127 241.5,289.5C 238.708,289.548 236.875,288.215 236,285.5C 228.557,271.501 220.557,257.834 212,244.5C 190.873,256.312 169.706,267.979 148.5,279.5C 148.167,278.5 147.5,277.833 146.5,277.5C 147.348,275.907 148.681,274.74 150.5,274C 170.648,263.093 190.648,251.926 210.5,240.5C 202.022,227.202 194.355,213.536 187.5,199.5C 187.322,198.305 186.989,197.138 186.5,196C 186.836,194.97 187.503,194.47 188.5,194.5 Z"/></g>
<g><path style="opacity:0.196" fill="#aaaaaa" d="M 245.5,238.5 C 246.687,241.946 247.354,245.613 247.5,249.5C 245.918,246.124 245.251,242.458 245.5,238.5 Z"/></g>
<g><path style="opacity:0.004" fill="#fefffe" d="M 303.5,239.5 C 304.833,240.167 304.833,240.167 303.5,239.5 Z"/></g>
<g><path style="opacity:0.004" fill="#fefffe" d="M 19.5,250.5 C 20.8333,251.167 20.8333,251.167 19.5,250.5 Z"/></g>
<g><path style="opacity:0.004" fill="#fefffe" d="M 87.5,254.5 C 88.8333,255.167 88.8333,255.167 87.5,254.5 Z"/></g>
<g><path style="opacity:0.004" fill="#fefffe" d="M 108.5,265.5 C 109.833,266.167 109.833,266.167 108.5,265.5 Z"/></g>
<g><path style="opacity:0.004" fill="#fefffe" d="M 59.5,266.5 C 60.8333,267.167 60.8333,267.167 59.5,266.5 Z"/></g>
<g><path style="opacity:0.004" fill="#fefffe" d="M 84.5,270.5 C 85.8333,271.167 85.8333,271.167 84.5,270.5 Z"/></g>
<g><path style="opacity:0.004" fill="#fefffe" d="M 491.5,273.5 C 492.833,274.167 492.833,274.167 491.5,273.5 Z"/></g>
<g><path style="opacity:0.851" fill="#353535" d="M 146.5,277.5 C 147.5,277.833 148.167,278.5 148.5,279.5C 120.208,295.315 91.8742,311.149 63.5,327C 59.6178,329.284 55.6178,330.951 51.5,332C 50.273,330.413 50.6063,329.079 52.5,328C 80.9124,312.624 109.246,296.957 137.5,281C 140.279,279.278 143.279,278.111 146.5,277.5 Z"/></g>
<g><path style="opacity:0.004" fill="#fefffe" d="M 493.5,296.5 C 494.833,297.167 494.833,297.167 493.5,296.5 Z"/></g>
<g><path style="opacity:0.004" fill="#fefffe" d="M 387.5,300.5 C 388.833,301.167 388.833,301.167 387.5,300.5 Z"/></g>
<g><path style="opacity:0.004" fill="#fefffe" d="M 387.5,310.5 C 388.833,311.167 388.833,311.167 387.5,310.5 Z"/></g>
<g><path style="opacity:0.004" fill="#fefffe" d="M 176.5,313.5 C 177.833,314.167 177.833,314.167 176.5,313.5 Z"/></g>
<g><path style="opacity:0.004" fill="#fefffe" d="M 444.5,316.5 C 445.833,317.167 445.833,317.167 444.5,316.5 Z"/></g>
<g><path style="opacity:0.004" fill="#fefffe" d="M 246.5,318.5 C 247.833,319.167 247.833,319.167 246.5,318.5 Z"/></g>
<g><path style="opacity:0.831" fill="#323232" d="M 429.5,396.5 C 428.5,396.5 427.5,396.5 426.5,396.5C 434.685,361.702 422.019,338.202 388.5,326C 353.421,321.691 331.421,336.524 322.5,370.5C 322.843,368.517 322.176,367.183 320.5,366.5C 321.628,359.951 323.961,353.951 327.5,348.5C 328.906,348.027 329.573,347.027 329.5,345.5C 337.703,333.13 349.036,325.296 363.5,322C 398.968,317.638 421.801,332.471 432,366.5C 433.249,376.749 432.416,386.749 429.5,396.5 Z"/></g>
<g><path style="opacity:0.004" fill="#fefffe" d="M 11.5,322.5 C 12.8333,323.167 12.8333,323.167 11.5,322.5 Z"/></g>
<g><path style="opacity:0.004" fill="#fefffe" d="M 10.5,324.5 C 11.8333,325.167 11.8333,325.167 10.5,324.5 Z"/></g>
<g><path style="opacity:0.004" fill="#fefffe" d="M 22.5,329.5 C 23.8333,330.167 23.8333,330.167 22.5,329.5 Z"/></g>
<g><path style="opacity:0.004" fill="#fefffe" d="M 448.5,335.5 C 449.833,336.167 449.833,336.167 448.5,335.5 Z"/></g>
<g><path style="opacity:0.004" fill="#fefffe" d="M 296.5,347.5 C 297.833,348.167 297.833,348.167 296.5,347.5 Z"/></g>
<g><path style="opacity:0.102" fill="#b7b7b7" d="M 329.5,345.5 C 329.573,347.027 328.906,348.027 327.5,348.5C 327.427,346.973 328.094,345.973 329.5,345.5 Z"/></g>
<g><path style="opacity:0.004" fill="#fefffe" d="M 93.5,358.5 C 94.8333,359.167 94.8333,359.167 93.5,358.5 Z"/></g>
<g><path style="opacity:0.004" fill="#fefffe" d="M 372.5,358.5 C 373.833,359.167 373.833,359.167 372.5,358.5 Z"/></g>
<g><path style="opacity:0.004" fill="#fefffe" d="M 99.5,362.5 C 100.833,363.167 100.833,363.167 99.5,362.5 Z"/></g>
<g><path style="opacity:0.255" fill="#989898" d="M 268.5,363.5 C 269.906,363.973 270.573,364.973 270.5,366.5C 269.094,366.027 268.427,365.027 268.5,363.5 Z"/></g>
<g><path style="opacity:0.004" fill="#fefffe" d="M 265.5,369.5 C 266.833,370.167 266.833,370.167 265.5,369.5 Z"/></g>
<g><path style="opacity:0.004" fill="#fefffe" d="M 144.5,370.5 C 145.833,371.167 145.833,371.167 144.5,370.5 Z"/></g>
<g><path style="opacity:0.004" fill="#fefffe" d="M 165.5,372.5 C 166.833,373.167 166.833,373.167 165.5,372.5 Z"/></g>
<g><path style="opacity:0.004" fill="#fefffe" d="M 408.5,380.5 C 409.833,381.167 409.833,381.167 408.5,380.5 Z"/></g>
<g><path style="opacity:0.004" fill="#fefffe" d="M 452.5,382.5 C 453.833,383.167 453.833,383.167 452.5,382.5 Z"/></g>
<g><path style="opacity:0.855" fill="#3c3c3c" d="M 426.5,396.5 C 427.5,396.5 428.5,396.5 429.5,396.5C 423.967,412.699 413.3,424.032 397.5,430.5C 397.179,428.952 396.179,428.285 394.5,428.5C 408.833,421.5 419.5,410.833 426.5,396.5 Z"/></g>
<g><path style="opacity:0.834" fill="#353535" d="M 273.5,372.5 C 294.003,405.603 323.67,424.937 362.5,430.5C 361.449,431.222 360.782,432.222 360.5,433.5C 342.246,431.64 325.58,425.64 310.5,415.5C 310.027,414.094 309.027,413.427 307.5,413.5C 291.996,403.665 279.996,390.665 271.5,374.5C 271.833,373.5 272.5,372.833 273.5,372.5 Z"/></g>
<g><path style="opacity:0.852" fill="#363636" d="M 320.5,366.5 C 322.176,367.183 322.843,368.517 322.5,370.5C 321.032,389.423 329.032,402.256 346.5,409C 362.264,411.976 374.431,406.81 383,393.5C 385.747,388.511 387.247,383.178 387.5,377.5C 388.5,377.5 389.5,377.5 390.5,377.5C 389.993,396.185 380.66,408.018 362.5,413C 341.741,415.374 327.574,406.874 320,387.5C 319.179,380.321 319.345,373.321 320.5,366.5 Z"/></g>
<g><path style="opacity:0.004" fill="#fefffe" d="M 443.5,404.5 C 444.833,405.167 444.833,405.167 443.5,404.5 Z"/></g>
<g><path style="opacity:0.004" fill="#fefffe" d="M 255.5,410.5 C 256.833,411.167 256.833,411.167 255.5,410.5 Z"/></g>
<g><path style="opacity:0.004" fill="#fefffe" d="M 103.5,413.5 C 104.833,414.167 104.833,414.167 103.5,413.5 Z"/></g>
<g><path style="opacity:0.086" fill="#b2b2b2" d="M 307.5,413.5 C 309.027,413.427 310.027,414.094 310.5,415.5C 308.973,415.573 307.973,414.906 307.5,413.5 Z"/></g>
<g><path style="opacity:0.302" fill="#222222" d="M 394.5,428.5 C 396.179,428.285 397.179,428.952 397.5,430.5C 394.292,431.85 390.959,433.016 387.5,434C 378.452,434.777 369.452,434.611 360.5,433.5C 360.782,432.222 361.449,431.222 362.5,430.5C 373.323,432.203 383.989,431.536 394.5,428.5 Z"/></g>
<g><path style="opacity:0.004" fill="#fefffe" d="M 75.5,434.5 C 76.8333,435.167 76.8333,435.167 75.5,434.5 Z"/></g>
<g><path style="opacity:0.004" fill="#fefffe" d="M 489.5,438.5 C 490.833,439.167 490.833,439.167 489.5,438.5 Z"/></g>
<g><path style="opacity:0.004" fill="#fefffe" d="M 193.5,441.5 C 194.833,442.167 194.833,442.167 193.5,441.5 Z"/></g>
<g><path style="opacity:0.004" fill="#fefffe" d="M 280.5,443.5 C 281.833,444.167 281.833,444.167 280.5,443.5 Z"/></g>
<g><path style="opacity:0.004" fill="#fefffe" d="M 472.5,448.5 C 473.833,449.167 473.833,449.167 472.5,448.5 Z"/></g>
<g><path style="opacity:0.004" fill="#fefffe" d="M 180.5,460.5 C 181.833,461.167 181.833,461.167 180.5,460.5 Z"/></g>
<g><path style="opacity:0.004" fill="#fefffe" d="M 235.5,477.5 C 236.833,478.167 236.833,478.167 235.5,477.5 Z"/></g>
<g><path style="opacity:0.004" fill="#fefffe" d="M 280.5,477.5 C 281.833,478.167 281.833,478.167 280.5,477.5 Z"/></g>
<g><path style="opacity:0.004" fill="#fefffe" d="M 129.5,486.5 C 130.833,487.167 130.833,487.167 129.5,486.5 Z"/></g>
<g><path style="opacity:0.004" fill="#fefffe" d="M 422.5,495.5 C 423.833,496.167 423.833,496.167 422.5,495.5 Z"/></g>
</svg>
